# Blender v2.78 (sub 0) OBJ File: ''
# www.blender.org
mtllib test2.mtl
o Cube.001
v -1.666220 4.729356 -4.352342
v -1.666220 4.729355 0.470034
v -6.488596 4.729355 0.470034
v -6.488596 4.729356 -4.352342
v -1.666220 9.551731 -4.352339
v -6.488596 9.551731 -4.352342
v -6.488596 9.551731 0.470035
v -1.666223 9.551731 0.470037
vn 0.0000 -1.0000 -0.0000
vn 0.0000 1.0000 0.0000
vn 1.0000 0.0000 0.0000
vn -0.0000 -0.0000 1.0000
vn -1.0000 0.0000 0.0000
vn 0.0000 0.0000 -1.0000
usemtl Material.001
s 1
f 1//1 2//1 3//1 4//1
f 5//2 6//2 7//2 8//2
f 1//3 5//3 8//3 2//3
f 2//4 8//4 7//4 3//4
f 3//5 7//5 6//5 4//5
f 5//6 1//6 4//6 6//6
o Plane
v -22.433754 0.558966 16.415192
v 14.278938 0.558966 16.415192
v 14.278938 0.558972 -20.297501
v -22.433754 0.558972 -20.297501
vn 0.0000 1.0000 0.0000
usemtl None
s 1
f 9//7 10//7 11//7 12//7
