# Blender v2.78 (sub 0) OBJ File: ''
# www.blender.org
mtllib test2.mtl
o Cube
v 9.909489 -0.819285 -9.909488
v 9.909489 -0.819285 9.909489
v -9.909490 -0.819285 9.909487
v -9.909485 -0.819285 -9.909492
v 9.909493 -0.166903 -9.909483
v 9.909482 -0.166903 9.909494
v -9.909492 -0.166903 9.909485
v -9.909488 -0.166903 -9.909489
v -4.667380 -1.000000 1.000000
v -4.667380 1.000000 1.000000
v -4.667380 -1.000000 -1.000000
v -4.667380 1.000000 -1.000000
v -2.667381 -1.000000 1.000000
v -2.667381 1.000000 1.000000
v -2.667381 -1.000000 -1.000000
v -2.667381 1.000000 -1.000000
v 2.900101 -1.000000 1.000000
v 2.900101 1.000000 1.000000
v 2.900101 -1.000000 -1.000000
v 2.900101 1.000000 -1.000000
v 4.900101 -1.000000 1.000000
v 4.900101 1.000000 1.000000
v 4.900101 -1.000000 -1.000000
v 4.900101 1.000000 -1.000000
v 1.000000 1.000000 2.864313
v 1.000000 -1.000000 2.864313
v 1.000000 1.000000 4.864313
v 1.000000 -1.000000 4.864313
v -1.000000 1.000000 2.864313
v -1.000000 -1.000000 2.864313
v -1.000000 1.000000 4.864313
v -1.000000 -1.000000 4.864313
v -1.000000 -1.000000 -3.654837
v -1.000000 1.000000 -3.654837
v -1.000000 -1.000000 -5.654837
v -1.000000 1.000000 -5.654837
v 1.000000 -1.000000 -3.654837
v 1.000000 1.000000 -3.654837
v 1.000000 -1.000000 -5.654837
v 1.000000 1.000000 -5.654837
v -1.000000 3.127866 1.000000
v -1.000000 5.127866 1.000000
v -1.000000 3.127866 -1.000000
v -1.000000 5.127866 -1.000000
v 1.000000 3.127866 1.000000
v 1.000000 5.127866 1.000000
v 1.000000 3.127866 -1.000000
v 1.000000 5.127866 -1.000000
v -11.625100 11.581592 11.204717
v -11.625100 12.228673 11.204717
v -11.625100 11.581592 -11.318871
v -11.625100 12.228673 -11.318871
v 10.898485 11.581592 11.204717
v 10.898485 12.228673 11.204717
v 10.898485 11.581592 -11.318871
v 10.898485 12.228673 -11.318871
vn 0.0000 -1.0000 0.0000
vn 0.0000 1.0000 -0.0000
vn 1.0000 0.0000 0.0000
vn -0.0000 -0.0000 1.0000
vn -1.0000 -0.0000 -0.0000
vn 0.0000 0.0000 -1.0000
usemtl Material
s off
f 1//1 2//1 3//1 4//1
f 5//2 8//2 7//2 6//2
f 1//3 5//3 6//3 2//3
f 2//4 6//4 7//4 3//4
f 3//5 7//5 8//5 4//5
f 5//6 1//6 4//6 8//6
f 9//5 10//5 12//5 11//5
f 11//6 12//6 16//6 15//6
f 15//3 16//3 14//3 13//3
f 13//4 14//4 10//4 9//4
f 11//1 15//1 13//1 9//1
f 16//2 12//2 10//2 14//2
f 17//5 18//5 20//5 19//5
f 19//6 20//6 24//6 23//6
f 23//3 24//3 22//3 21//3
f 21//4 22//4 18//4 17//4
f 19//1 23//1 21//1 17//1
f 24//2 20//2 18//2 22//2
f 25//2 29//2 31//2 27//2
f 30//1 26//1 28//1 32//1
f 28//4 27//4 31//4 32//4
f 26//3 25//3 27//3 28//3
f 30//6 29//6 25//6 26//6
f 32//5 31//5 29//5 30//5
f 33//5 34//5 36//5 35//5
f 35//6 36//6 40//6 39//6
f 39//3 40//3 38//3 37//3
f 37//4 38//4 34//4 33//4
f 35//1 39//1 37//1 33//1
f 40//2 36//2 34//2 38//2
f 41//5 42//5 44//5 43//5
f 43//6 44//6 48//6 47//6
f 47//3 48//3 46//3 45//3
f 45//4 46//4 42//4 41//4
f 43//1 47//1 45//1 41//1
f 48//2 44//2 42//2 46//2
f 49//5 50//5 52//5 51//5
f 51//6 52//6 56//6 55//6
f 55//3 56//3 54//3 53//3
f 53//4 54//4 50//4 49//4
f 51//1 55//1 53//1 49//1
f 56//2 52//2 50//2 54//2
