# Blender v2.78 (sub 0) OBJ File: ''
# www.blender.org
mtllib skybox.mtl
o skybox
v -172.365173 -172.365234 172.365112
v -172.365173 -172.365112 -172.365234
v -172.365173 172.365234 -172.365112
v 172.365173 -172.365112 -172.365234
v 172.365173 172.365234 -172.365112
v 172.365173 -172.365234 172.365112
v 172.365173 172.365112 172.365234
v -172.365173 172.365112 172.365234
vt 0.5019 0.3332
vt 0.2494 0.3315
vt 0.2481 0.6642
vt 0.5007 0.6659
vt 0.2508 0.3341
vt 0.0011 0.3348
vt 0.0017 0.6646
vt 0.2514 0.6639
vt 1.0021 0.3309
vt 0.7540 0.3330
vt 0.7556 0.6659
vt 1.0037 0.6638
vt 0.7568 0.3320
vt 0.5028 0.3320
vt 0.5028 0.6649
vt 0.7568 0.6649
vt 0.4984 0.3314
vt 0.4984 -0.0016
vt 0.2529 -0.0016
vt 0.2529 0.3314
vt 0.2534 0.6643
vt 0.2534 0.9972
vt 0.5005 0.9972
vt 0.5005 0.6643
vn 1.0000 0.0000 0.0000
vn 0.0000 0.0000 1.0000
vn -1.0000 0.0000 0.0000
vn 0.0000 0.0000 -1.0000
vn 0.0000 1.0000 0.0000
vn 0.0000 -1.0000 -0.0000
usemtl None
s 1
f 1/1/1 2/2/1 3/3/1
f 8/4/1 1/1/1 3/3/1
s 2
f 2/5/2 4/6/2 5/7/2
f 3/8/2 2/5/2 5/7/2
s 3
f 4/9/3 6/10/3 7/11/3
f 5/12/3 4/9/3 7/11/3
s 4
f 6/13/4 1/14/4 8/15/4
f 7/16/4 6/13/4 8/15/4
s 5
f 6/17/5 4/18/5 2/19/5
f 1/20/5 6/17/5 2/19/5
s 6
f 8/21/6 3/22/6 5/23/6
f 7/24/6 8/21/6 5/23/6
